<svg width="24" height="24" viewBox="0 0 24 24" fill="none" xmlns="http://www.w3.org/2000/svg">
<path d="M9.1069 2.22666C8.2074 2.33342 7.54625 2.9816 7.41685 3.87809C7.2227 5.2233 7 7.70275 7 12C7 15.8837 7.10105 18.2827 7.20015 19.7015C7.2786 20.8251 8.07955 21.6859 9.2003 21.7988C10.2484 21.9044 11.8039 22 14 22C16.1961 22 17.7516 21.9044 18.7997 21.7988C19.9205 21.6859 20.7214 20.8251 20.7999 19.7015C20.8989 18.2827 21 15.8837 21 12C21 8.11625 20.8989 5.7173 20.7999 4.29853C20.7214 3.17486 19.9205 2.31411 18.7997 2.20122C17.7516 2.09566 16.1961 2 14 2C11.6284 2 10.0768 2.11155 9.1069 2.22666Z" fill="#F2F2F2"/>
<path d="M5.05185 16.6974C5.80645 17.3324 6.7386 16.9166 6.7936 15.9283C6.82405 15.3811 6.85065 14.6909 6.8666 13.826C11.1438 13.7827 14.4744 13.6821 16.033 13.6279C16.5756 13.6091 17 13.1608 17 12.6145V11.4923C17 10.9542 16.5879 10.5099 16.0539 10.482C14.5043 10.4011 11.1631 10.2491 6.8668 10.1839C6.8509 9.3145 6.8242 8.62115 6.79365 8.07185C6.73865 7.08335 5.8062 6.6675 5.05145 7.3027C4.6017 7.6812 4.04725 8.17235 3.3797 8.80395C2.2607 9.8627 1.61835 10.6584 1.2553 11.1911C0.91485 11.6905 0.9149 12.309 1.25535 12.8084C1.61845 13.341 2.2608 14.1367 3.3797 15.1956C4.04745 15.8275 4.60205 16.3188 5.05185 16.6974Z" fill="#333333"/>
</svg>
