<svg width="24" height="24" viewBox="0 0 24 24" fill="none" xmlns="http://www.w3.org/2000/svg">
<g clip-path="url(#clip0_1639_979)">
<path d="M12 23.4286C18.3118 23.4286 23.4286 18.3118 23.4286 12C23.4286 5.68816 18.3118 0.571411 12 0.571411C5.68816 0.571411 0.571411 5.68816 0.571411 12C0.571411 18.3118 5.68816 23.4286 12 23.4286Z" fill="#3498DB"/>
<path d="M12.0001 8.57139C12.9468 8.57139 13.7143 7.80388 13.7143 6.85711C13.7143 5.91033 12.9468 5.14282 12.0001 5.14282C11.0533 5.14282 10.2858 5.91033 10.2858 6.85711C10.2858 7.80388 11.0533 8.57139 12.0001 8.57139Z" fill="white"/>
<path d="M13.1429 12C13.1429 11.3689 12.6312 10.8572 12 10.8572C11.3689 10.8572 10.8572 11.3689 10.8572 12V17.7143C10.8572 18.3455 11.3689 18.8572 12 18.8572C12.6312 18.8572 13.1429 18.3455 13.1429 17.7143V12Z" fill="white"/>
</g>
<defs>
<clipPath id="clip0_1639_979">
<rect width="24" height="24" fill="white"/>
</clipPath>
</defs>
</svg>
