<svg width="24" height="24" viewBox="0 0 24 24" fill="none" xmlns="http://www.w3.org/2000/svg">
<g clip-path="url(#clip0_1639_991)">
<path d="M0.571411 12C0.571411 18.3118 5.68815 23.4286 12 23.4286C18.3118 23.4286 23.4286 18.3118 23.4286 12C23.4286 5.68815 18.3118 0.571411 12 0.571411C5.68815 0.571411 0.571411 5.68815 0.571411 12Z" fill="#2ECC71"/>
<path d="M5.8546 12.2477C5.40849 11.8016 5.40849 11.0783 5.8546 10.6322C6.30071 10.1861 7.024 10.1861 7.47012 10.6322L11.5115 14.6736C11.9575 15.1196 11.9575 15.9111 11.5115 16.3571C11.0653 16.8032 10.342 16.7352 9.89594 16.2891L5.8546 12.2477Z" fill="white"/>
<path d="M16.5235 8.23781C16.9705 7.79085 17.6951 7.79085 18.1421 8.23781C18.5891 8.68477 18.5891 9.40943 18.1421 9.85639L11.6795 16.3191C11.2325 16.766 10.5079 16.766 10.0609 16.3191C9.61394 15.8721 9.61394 15.1474 10.0609 14.7004L16.5235 8.23781Z" fill="white"/>
</g>
<defs>
<clipPath id="clip0_1639_991">
<rect width="24" height="24" fill="white"/>
</clipPath>
</defs>
</svg>
