<svg width="24" height="24" viewBox="0 0 24 24" fill="none" xmlns="http://www.w3.org/2000/svg">
<path d="M9.12222 17C9.5643 17 9.81085 16.8474 10.1509 16.2915L11.9278 13.4754H11.9788L13.7896 16.3362C14.0702 16.7848 14.3083 17 14.7928 17C15.4645 17 15.9745 16.5515 15.9745 15.843C15.9745 15.556 15.8895 15.3049 15.7025 15.0358L13.5856 11.9506L15.6685 9.01794C15.9065 8.69507 16 8.43497 16 8.11211C16 7.44843 15.5325 7 14.8353 7C14.3763 7 14.1127 7.21525 13.7811 7.76234L12.1148 10.4439H12.0638L10.3635 7.74439C10.0319 7.18835 9.76834 7 9.26674 7C8.58661 7 8.07651 7.49327 8.07651 8.14798C8.07651 8.45291 8.16152 8.713 8.34007 8.96412L10.4655 12.0224L8.33157 15.0358C8.09351 15.3677 8 15.6188 8 15.9327C8 16.5604 8.46759 17 9.12222 17Z" fill="#333333"/>
</svg>
