<svg width="24" height="24" viewBox="0 0 24 24" fill="none" xmlns="http://www.w3.org/2000/svg">
<g clip-path="url(#clip0_1639_983)">
<path d="M12 23.4286C18.3118 23.4286 23.4286 18.3118 23.4286 12C23.4286 5.68816 18.3118 0.571411 12 0.571411C5.68816 0.571411 0.571411 5.68816 0.571411 12C0.571411 18.3118 5.68816 23.4286 12 23.4286Z" fill="#EA4335"/>
<path d="M15.1751 7.09369L7.09389 15.1749C6.64758 15.6212 6.64758 16.3448 7.09389 16.7912C7.5402 17.2375 8.26382 17.2375 8.71013 16.7912L16.7914 8.70993C17.2377 8.26362 17.2377 7.54 16.7914 7.09369C16.345 6.64738 15.6214 6.64738 15.1751 7.09369Z" fill="white"/>
<path d="M16.7914 15.1751L8.71022 7.09389C8.26391 6.64758 7.54029 6.64758 7.09398 7.09389C6.64766 7.5402 6.64766 8.26382 7.09398 8.71013L15.1752 16.7914C15.6215 17.2377 16.3451 17.2377 16.7914 16.7914C17.2378 16.345 17.2378 15.6214 16.7914 15.1751Z" fill="white"/>
</g>
<defs>
<clipPath id="clip0_1639_983">
<rect width="24" height="24" fill="white"/>
</clipPath>
</defs>
</svg>
