<svg width="16" height="16" viewBox="0 0 16 16" fill="none" xmlns="http://www.w3.org/2000/svg">
<path d="M7.45009 2.80239C7.71489 2.41601 8.28511 2.41601 8.54992 2.80239L9.98201 4.89198C10.0687 5.01847 10.1963 5.11121 10.3434 5.15457L12.7733 5.87085C13.2226 6.00329 13.3988 6.5456 13.1131 6.91685L11.5684 8.9246C11.4749 9.04613 11.4261 9.19613 11.4303 9.34946L11.5 11.8817C11.5129 12.3499 11.0515 12.6851 10.6102 12.5282L8.22337 11.6794C8.07889 11.6281 7.92112 11.6281 7.77664 11.6794L5.38982 12.5282C4.94848 12.6851 4.48716 12.3499 4.50004 11.8817L4.56969 9.34946C4.5739 9.19613 4.52515 9.04613 4.43164 8.9246L2.88686 6.91685C2.60121 6.5456 2.77742 6.0033 3.22672 5.87085L5.65659 5.15457C5.80367 5.11121 5.93131 5.01847 6.018 4.89198L7.45009 2.80239Z" fill="white"/>
</svg>
