<svg width="24" height="24" viewBox="0 0 24 24" fill="none" xmlns="http://www.w3.org/2000/svg">
<path d="M12 22C17.5228 22 22 17.5228 22 12C22 6.47715 17.5228 2 12 2C6.47715 2 2 6.47715 2 12C2 17.5228 6.47715 22 12 22Z" fill="#F2F2F2"/>
<path d="M11 7L11 17C11 17.5523 11.4477 18 12 18C12.5523 18 13 17.5523 13 17L13 7C13 6.44771 12.5523 6 12 6C11.4477 6 11 6.44771 11 7Z" fill="#333333"/>
<path d="M16.9999 11L6.99988 11C6.44759 11 5.99988 11.4477 5.99988 12C5.99988 12.5523 6.44759 13 6.99988 13L16.9999 13C17.5522 13 17.9999 12.5523 17.9999 12C17.9999 11.4477 17.5522 11 16.9999 11Z" fill="#333333"/>
</svg>
