<svg width="24" height="24" viewBox="0 0 24 24" fill="none" xmlns="http://www.w3.org/2000/svg">
<path fill-rule="evenodd" clip-rule="evenodd" d="M13.6194 4.40797C13.3559 2.53068 10.6441 2.53068 10.3806 4.40797C10.2073 5.64229 8.77208 6.23677 7.77675 5.4865C6.26294 4.34543 4.34543 6.26294 5.4865 7.77675C6.23677 8.77209 5.64229 10.2073 4.40797 10.3806C2.53068 10.6441 2.53068 13.3559 4.40797 13.6194C5.64229 13.7927 6.23677 15.228 5.4865 16.2232C4.34543 17.7371 6.26294 19.6546 7.77675 18.5135C8.77209 17.7633 10.2073 18.3577 10.3806 19.5921C10.6441 21.4693 13.3559 21.4693 13.6194 19.5921C13.7927 18.3577 15.228 17.7633 16.2232 18.5135C17.7371 19.6546 19.6546 17.7371 18.5135 16.2232C17.7633 15.228 18.3577 13.7927 19.5921 13.6194C21.4693 13.3559 21.4693 10.6441 19.5921 10.3806C18.3577 10.2073 17.7633 8.77208 18.5135 7.77675C19.6546 6.26294 17.7371 4.34543 16.2232 5.4865C15.228 6.23677 13.7927 5.64229 13.6194 4.40797ZM12 15.3754C13.8642 15.3754 15.3753 13.8642 15.3753 12C15.3753 10.1359 13.8642 8.62468 12 8.62468C10.1358 8.62468 8.62465 10.1359 8.62465 12C8.62465 13.8642 10.1358 15.3754 12 15.3754Z" fill="#F2F2F2"/>
<path d="M15.3753 12C15.3753 13.8642 13.8642 15.3754 12 15.3754C10.1358 15.3754 8.62465 13.8642 8.62465 12C8.62465 10.1359 10.1358 8.62468 12 8.62468C13.8642 8.62468 15.3753 10.1359 15.3753 12Z" fill="#333333"/>
</svg>
