<svg width="24" height="24" viewBox="0 0 24 24" fill="none" xmlns="http://www.w3.org/2000/svg">
<path d="M19 4H5C3.34315 4 2 5.34315 2 7V17C2 18.6569 3.34315 20 5 20H19C20.6569 20 22 18.6569 22 17V7C22 5.34315 20.6569 4 19 4Z" fill="#F2F2F2"/>
<path d="M19 8C19 6.89543 18.1046 6 17 6C15.8954 6 15 6.89543 15 8C15 9.10457 15.8954 10 17 10C18.1046 10 19 9.10457 19 8Z" fill="#333333"/>
<path d="M7.75002 9.03602C10.3309 8.51756 11.3601 13.7631 14.25 14.0365C15.853 14.1882 16.8098 12.3165 18.25 13.0365C19.8082 13.8156 20.1884 15.2535 20.262 16.1764C20.3013 16.6704 19.883 17.0363 19.3874 17.036L4.95705 17.0267C4.33022 17.0263 3.86364 16.4569 4.01267 15.848C4.53316 13.7215 5.81511 9.42472 7.75002 9.03602Z" fill="#333333"/>
</svg>
