<svg width="24" height="24" viewBox="0 0 24 24" fill="none" xmlns="http://www.w3.org/2000/svg">
<path d="M7.91377 9.00212C8.13301 9.13464 8.41831 9.0626 8.54611 8.84336C9.22269 7.68254 10.4044 5.65502 11.192 4.30386C11.5447 3.69868 12.4344 3.69868 12.7871 4.30386C13.5747 5.65502 14.7564 7.68254 15.433 8.84336C15.5608 9.0626 15.8461 9.13464 16.0654 9.00212C17.2261 8.30052 18.5483 7.42856 19.5572 6.7482C20.2013 6.31382 21.0733 6.80319 20.9951 7.56581C20.7351 10.1009 20.2052 14.5865 19.4528 17.6064C19.3468 18.0316 19.0963 18.3968 18.6722 18.5338C17.8552 18.7978 16.0114 19.15 11.9896 19.15C8.06556 19.15 6.21493 18.8147 5.36839 18.5532C4.90231 18.4093 4.63779 18.0045 4.5365 17.5358C3.79923 14.1243 3.27425 9.97812 3.00589 7.58997C2.91982 6.82407 3.7955 6.32588 4.44316 6.76247C5.44936 7.44075 6.76114 8.30543 7.91377 9.00212Z" fill="#333333"/>
<path d="M14.7 13.3C14.7 13.975 12.675 16.9 12 16.9C11.325 16.9 9.29999 13.975 9.29999 13.3C9.29999 12.625 11.325 9.69995 12 9.69995C12.675 9.69995 14.7 12.625 14.7 13.3Z" fill="#F2F2F2"/>
</svg>
