<svg width="24" height="24" viewBox="0 0 24 24" fill="none" xmlns="http://www.w3.org/2000/svg">
<path d="M20.3303 4.4911C18.7767 3.79451 17.1156 3.28826 15.3789 3C15.1656 3.36954 14.9164 3.86659 14.7446 4.26198C12.8985 3.99592 11.0693 3.99592 9.25716 4.26198C9.08539 3.86659 8.83055 3.36954 8.61536 3C6.87681 3.28826 5.21376 3.79637 3.66019 4.49479C0.526643 9.03269 -0.322811 13.4579 0.101917 17.8202C2.18025 19.3076 4.19441 20.2112 6.17457 20.8024C6.66349 20.1576 7.09953 19.4721 7.47518 18.7496C6.75975 18.4891 6.07453 18.1676 5.42707 17.7944C5.59884 17.6724 5.76686 17.5449 5.92918 17.4137C9.87819 19.1838 14.1689 19.1838 18.0707 17.4137C18.235 17.5449 18.403 17.6724 18.5728 17.7944C17.9235 18.1694 17.2364 18.4909 16.521 18.7515C16.8966 19.4721 17.3308 20.1594 17.8216 20.8042C19.8036 20.213 21.8197 19.3095 23.898 17.8202C24.3964 12.7632 23.0467 8.37861 20.3303 4.4911ZM8.01318 15.1374C6.82772 15.1374 5.85555 14.0768 5.85555 12.7853C5.85555 11.4938 6.80696 10.4314 8.01318 10.4314C9.21942 10.4314 10.1916 11.4919 10.1708 12.7853C10.1727 14.0768 9.21942 15.1374 8.01318 15.1374ZM15.9867 15.1374C14.8013 15.1374 13.8291 14.0768 13.8291 12.7853C13.8291 11.4938 14.7805 10.4314 15.9867 10.4314C17.193 10.4314 18.1651 11.4919 18.1444 12.7853C18.1444 14.0768 17.193 15.1374 15.9867 15.1374Z" fill="#5865F2"/>
</svg>
