<svg width="24" height="24" viewBox="0 0 24 24" fill="none" xmlns="http://www.w3.org/2000/svg">
<path d="M12 22C17.5228 22 22 17.5228 22 12C22 6.47715 17.5228 2 12 2C6.47715 2 2 6.47715 2 12C2 17.5228 6.47715 22 12 22Z" fill="#F2F2F2"/>
<path d="M15.203 13.789L14.036 12.28C13.686 11.827 13.473 11.283 13.421 10.713L13 6C13 5.448 12.552 5 12 5C11.448 5 11 5.448 11 6L10.619 10.885C10.544 11.845 10.935 12.783 11.67 13.406L13.789 15.203C14.18 15.594 14.813 15.594 15.203 15.203C15.594 14.813 15.594 14.179 15.203 13.789Z" fill="#333333"/>
</svg>
