<svg width="24" height="24" viewBox="0 0 24 24" fill="none" xmlns="http://www.w3.org/2000/svg">
<path d="M17 3H7C5.34315 3 4 4.34315 4 6V19C4 20.6569 5.34315 22 7 22H17C18.6569 22 20 20.6569 20 19V6C20 4.34315 18.6569 3 17 3Z" fill="#F2F2F2"/>
<path d="M19 3H5C3.89543 3 3 3.89543 3 5C3 6.10457 3.89543 7 5 7H19C20.1046 7 21 6.10457 21 5C21 3.89543 20.1046 3 19 3Z" fill="#333333"/>
<path d="M15 2H9C8.44772 2 8 2.44772 8 3C8 3.55228 8.44772 4 9 4H15C15.5523 4 16 3.55228 16 3C16 2.44772 15.5523 2 15 2Z" fill="#333333"/>
<path d="M9.33594 18.1641C9.74219 18.1641 9.96875 18.0312 10.2812 17.5469L11.9141 15.0938H11.9609L13.625 17.5859C13.8828 17.9766 14.1016 18.1641 14.5469 18.1641C15.1641 18.1641 15.6328 17.7734 15.6328 17.1562C15.6328 16.9062 15.5547 16.6875 15.3828 16.4531L13.4375 13.7656L15.3516 11.2109C15.5703 10.9297 15.6562 10.7031 15.6562 10.4219C15.6562 9.84375 15.2266 9.45312 14.5859 9.45312C14.1641 9.45312 13.9219 9.64062 13.6172 10.1172L12.0859 12.4531H12.0391L10.4766 10.1016C10.1719 9.61719 9.92969 9.45312 9.46875 9.45312C8.84375 9.45312 8.375 9.88281 8.375 10.4531C8.375 10.7187 8.45312 10.9453 8.61719 11.1641L10.5703 13.8281L8.60938 16.4531C8.39062 16.7422 8.30469 16.9609 8.30469 17.2344C8.30469 17.7812 8.73438 18.1641 9.33594 18.1641Z" fill="#333333"/>
</svg>
