<svg width="24" height="24" viewBox="0 0 24 24" fill="none" xmlns="http://www.w3.org/2000/svg">
<path d="M10 9C10 5.13401 13.134 2 17 2C19.7614 2 22 4.23858 22 7C22 10.866 18.866 14 15 14C12.2386 14 10 11.7614 10 9Z" fill="#F2F2F2"/>
<path d="M2 17C2 13.134 5.13401 10 9 10C11.7614 10 14 12.2386 14 15C14 18.866 10.866 22 7 22C4.23858 22 2 19.7614 2 17Z" fill="#F2F2F2"/>
<path d="M13.5836 7.54792L7.55093 13.5806C6.76988 14.3616 6.76988 15.628 7.55093 16.409L7.57938 16.4375C8.36043 17.2185 9.62676 17.2185 10.4078 16.4375L16.4405 10.4048C17.2215 9.62374 17.2215 8.35741 16.4405 7.57636L16.412 7.54792C15.631 6.76687 14.3647 6.76687 13.5836 7.54792Z" fill="#333333"/>
</svg>
