<svg width="24" height="24" viewBox="0 0 24 24" fill="none" xmlns="http://www.w3.org/2000/svg">
<g clip-path="url(#clip0_1639_975)">
<path d="M12 0.571448C5.68819 0.571449 0.571446 5.68819 0.571446 12C0.571447 18.3118 5.68819 23.4286 12 23.4286C18.3118 23.4286 23.4286 18.3118 23.4286 12C23.4286 5.68819 18.3118 0.571448 12 0.571448Z" fill="#F1C40F"/>
<path d="M11.9999 15.4286C11.0532 15.4286 10.2857 16.1961 10.2857 17.1429C10.2857 18.0897 11.0532 18.8572 11.9999 18.8572C12.9467 18.8572 13.7142 18.0897 13.7142 17.1429C13.7142 16.1961 12.9467 15.4286 11.9999 15.4286Z" fill="white"/>
<path d="M10.8571 12C10.8571 12.6311 11.3688 13.1428 12 13.1428C12.6311 13.1428 13.1428 12.6311 13.1428 12L13.1428 6.28568C13.1428 5.6545 12.6311 5.14282 12 5.14282C11.3688 5.14282 10.8571 5.6545 10.8571 6.28568L10.8571 12Z" fill="white"/>
</g>
<defs>
<clipPath id="clip0_1639_975">
<rect width="24" height="24" fill="white" transform="translate(24 24) rotate(180)"/>
</clipPath>
</defs>
</svg>
