<svg width="24" height="24" viewBox="0 0 24 24" fill="none" xmlns="http://www.w3.org/2000/svg">
<g clip-path="url(#clip0_1560_785)">
<path d="M24 12C24 18.6274 18.6274 24 12 24C5.37258 24 0 18.6274 0 12C0 5.37258 5.37258 0 12 0C18.6274 0 24 5.37258 24 12Z" fill="#F2F2F2"/>
<path d="M9.92213 6.60221L7.84 9.33333V14.6667L9.92213 17.3978C10.2113 17.7773 10.661 18 11.138 18C11.9823 18 12.6667 17.3156 12.6667 16.4714V7.52863C12.6667 6.68439 11.9823 6 11.138 6C10.661 6 10.2113 6.22273 9.92213 6.60221Z" fill="#B0B5BF"/>
<path d="M4.66667 11.3333C4.66667 10.2288 5.5621 9.33333 6.66667 9.33333H7.84V14.6667H6.66667C5.5621 14.6667 4.66667 13.7713 4.66667 12.6667V11.3333Z" fill="#B0B5BF"/>
<path fill-rule="evenodd" clip-rule="evenodd" d="M15.3108 6.92718C15.5351 6.54653 16.0255 6.41979 16.4061 6.6441C17.4066 7.23365 18.1839 7.96846 18.7061 8.88225C19.2282 9.79603 19.4667 10.8388 19.4667 12C19.4667 13.1612 19.2282 14.204 18.7061 15.1177C18.1839 16.0315 17.4066 16.7663 16.4062 17.3559C16.0255 17.5802 15.5351 17.4535 15.3108 17.0728C15.0865 16.6922 15.2132 16.2018 15.5938 15.9774C16.4018 15.5013 16.9578 14.9523 17.3169 14.3239C17.676 13.6955 17.8667 12.9378 17.8667 12C17.8667 11.0622 17.676 10.3044 17.3169 9.67607C16.9578 9.04768 16.4018 8.49867 15.5939 8.02257C15.2132 7.79826 15.0865 7.30784 15.3108 6.92718Z" fill="#B0B5BF"/>
<path fill-rule="evenodd" clip-rule="evenodd" d="M14.0267 8.85334C14.2918 8.49987 14.7932 8.42824 15.1467 8.69333C15.6878 9.09921 16.1138 9.5654 16.3982 10.1343C16.6826 10.7031 16.8 11.3235 16.8 12C16.8 12.6765 16.6826 13.2969 16.3982 13.8658C16.1137 14.4346 15.6878 14.9008 15.1467 15.3067C14.7932 15.5718 14.2918 15.5001 14.0267 15.1467C13.7616 14.7932 13.8332 14.2918 14.1867 14.0267C14.577 13.7339 14.8177 13.449 14.9671 13.1502C15.1165 12.8515 15.2 12.4879 15.2 12C15.2 11.5121 15.1165 11.1485 14.9671 10.8498C14.8177 10.551 14.577 10.2661 14.1867 9.97334C13.8332 9.70824 13.7616 9.2068 14.0267 8.85334Z" fill="#B0B5BF"/>
<path fill-rule="evenodd" clip-rule="evenodd" d="M6.76765 6.76765C7.08007 6.45523 7.5866 6.45523 7.89902 6.76765L17.2324 16.101C17.5448 16.4134 17.5448 16.9199 17.2324 17.2324C16.9199 17.5448 16.4134 17.5448 16.101 17.2324L6.76765 7.89902C6.45523 7.5866 6.45523 7.08007 6.76765 6.76765Z" fill="#333333"/>
</g>
<defs>
<clipPath id="clip0_1560_785">
<rect width="24" height="24" fill="white"/>
</clipPath>
</defs>
</svg>
