<svg width="24" height="24" viewBox="0 0 24 24" fill="none" xmlns="http://www.w3.org/2000/svg">
<path d="M17 1.75H7C5.34315 1.75 4 3.09315 4 4.75V19.3214C4 20.9783 5.34315 22.3214 7 22.3214H17C18.6569 22.3214 20 20.9783 20 19.3214V4.75C20 3.09315 18.6569 1.75 17 1.75Z" fill="#F2F2F2"/>
<path d="M11.5869 14.5586C12.2109 14.5586 12.5537 14.2158 12.6855 13.627C12.7998 12.8887 13.0635 12.5107 14.2324 11.834C15.4717 11.1045 16.1133 10.1992 16.1133 8.87208C16.1133 6.82423 14.4346 5.45312 11.9385 5.45312C10.0488 5.45312 8.64258 6.20021 8.08008 7.36036C7.9043 7.69435 7.81641 8.02833 7.81641 8.40626C7.81641 9.07423 8.24707 9.50489 8.94141 9.50489C9.47754 9.50489 9.87305 9.2588 10.0928 8.6963C10.374 7.91407 10.9541 7.4922 11.8154 7.4922C12.7822 7.4922 13.4502 8.08985 13.4502 8.95118C13.4502 9.75978 13.1074 10.1992 11.9736 10.876C10.9365 11.4824 10.4004 12.168 10.4004 13.2051V13.3281C10.4004 14.0488 10.8398 14.5586 11.5869 14.5586ZM11.6045 18.4697C12.4043 18.4697 13.0459 17.8633 13.0459 17.0898C13.0459 16.3164 12.4043 15.71 11.6045 15.71C10.8135 15.71 10.1719 16.3164 10.1719 17.0898C10.1719 17.8633 10.8135 18.4697 11.6045 18.4697Z" fill="#333333"/>
</svg>
