<svg width="24" height="24" viewBox="0 0 24 24" fill="none" xmlns="http://www.w3.org/2000/svg">
<path d="M11.1751 4.20359C11.5723 3.62401 12.4276 3.62401 12.8248 4.20359L14.9729 7.33798C15.1029 7.52771 15.2944 7.66682 15.515 7.73186L19.1598 8.80628C19.8338 9.00494 20.0981 9.81841 19.6696 10.3753L17.3525 13.3869C17.2122 13.5692 17.1391 13.7942 17.1454 14.0242L17.2499 17.8226C17.2692 18.5249 16.5772 19.0277 15.9152 18.7923L12.335 17.5191C12.1183 17.4421 11.8816 17.4421 11.6649 17.5191L8.08467 18.7923C7.42266 19.0277 6.73068 18.5249 6.75 17.8226L6.85447 14.0242C6.86079 13.7942 6.78766 13.5692 6.6474 13.3869L4.33022 10.3753C3.90176 9.81841 4.16607 9.00495 4.84002 8.80628L8.48482 7.73186C8.70545 7.66682 8.89691 7.52771 9.02694 7.33798L11.1751 4.20359Z" fill="#B0B5BF"/>
</svg>
