<svg width="24" height="24" viewBox="0 0 24 24" fill="none" xmlns="http://www.w3.org/2000/svg">
<path d="M18 3H6C4.34315 3 3 4.34315 3 6V18C3 19.6569 4.34315 21 6 21H18C19.6569 21 21 19.6569 21 18V6C21 4.34315 19.6569 3 18 3Z" fill="#2ECC71"/>
<path d="M6.95682 12.2168C6.56648 11.8264 6.56648 11.1935 6.95682 10.8032C7.34717 10.4129 7.98005 10.4129 8.3704 10.8032L11.9066 14.3394C12.2969 14.7297 12.2969 15.4222 11.9066 15.8125C11.5162 16.2028 10.8833 16.1433 10.493 15.753L6.95682 12.2168Z" fill="white"/>
<path d="M16.2921 8.70811C16.6832 8.31702 17.3173 8.31702 17.7084 8.70811C18.0995 9.0992 18.0995 9.73328 17.7084 10.1244L12.0536 15.7792C11.6625 16.1703 11.0284 16.1703 10.6373 15.7792C10.2462 15.3881 10.2462 14.754 10.6373 14.3629L16.2921 8.70811Z" fill="white"/>
</svg>
