<svg width="30" height="30" viewBox="0 0 30 30" fill="none" xmlns="http://www.w3.org/2000/svg">
<g clip-path="url(#clip0_239_473)">
<path d="M15 30C23.2843 30 30 23.2843 30 15C30 6.71573 23.2843 0 15 0C6.71573 0 0 6.71573 0 15C0 23.2843 6.71573 30 15 30Z" fill="#F2F2F2"/>
<path d="M19.9802 13.9095C20.5476 14.4919 20.5476 15.4205 19.9802 16.0029L13.4494 22.7061C12.5102 23.6702 10.875 23.0052 10.875 21.6594V8.25301C10.875 6.90721 12.5102 6.24232 13.4494 7.20627L19.9802 13.9095Z" fill="#333333"/>
<path fill-rule="evenodd" clip-rule="evenodd" d="M0.300065 18C0.103317 17.0307 0 16.0273 0 15C0 13.9726 0.103317 12.9694 0.300065 12H12V18H0.300065Z" fill="#333333"/>
</g>
<defs>
<clipPath id="clip0_239_473">
<rect width="30" height="30" fill="white"/>
</clipPath>
</defs>
</svg>
