<svg width="14" height="14" viewBox="0 0 14 14" fill="none" xmlns="http://www.w3.org/2000/svg">
<path d="M4.61637 5.25127C4.74426 5.32857 4.91068 5.28655 4.98523 5.15866C5.3799 4.48151 6.06925 3.29879 6.52865 2.51062C6.7344 2.15759 7.25342 2.15759 7.45916 2.51061C7.91857 3.29879 8.60792 4.48151 9.00261 5.15866C9.07713 5.28655 9.24359 5.32857 9.37148 5.25127C10.0486 4.842 10.8198 4.33336 11.4083 3.93648C11.7841 3.68309 12.2927 3.96856 12.2471 4.41342C12.0955 5.89224 11.7864 8.50881 11.3474 10.2704C11.2857 10.5185 11.1395 10.7315 10.8921 10.8114C10.4155 10.9654 9.34 11.1708 6.99391 11.1708C4.70491 11.1708 3.62538 10.9753 3.13156 10.8227C2.85968 10.7388 2.70538 10.5027 2.64629 10.2293C2.21622 8.23922 1.90998 5.8206 1.75343 4.42751C1.70323 3.98074 2.21404 3.69013 2.59184 3.9448C3.17879 4.34047 3.944 4.84486 4.61637 5.25127Z" fill="#333333"/>
<path d="M8.5748 7.75833C8.5748 8.15208 7.39355 9.85833 6.9998 9.85833C6.60605 9.85833 5.4248 8.15208 5.4248 7.75833C5.4248 7.36458 6.60605 5.65833 6.9998 5.65833C7.39355 5.65833 8.5748 7.36458 8.5748 7.75833Z" fill="#F2F2F2"/>
</svg>
