<svg width="14" height="14" viewBox="0 0 14 14" fill="none" xmlns="http://www.w3.org/2000/svg">
<path d="M6.51882 2.45211C6.75052 2.11403 7.24946 2.11403 7.48116 2.45211L8.73424 4.28051C8.81007 4.39118 8.92178 4.47233 9.05047 4.51027L11.1766 5.13701C11.5698 5.2529 11.7239 5.72742 11.474 6.05226L10.1223 7.80904C10.0405 7.91538 9.99786 8.04663 10.0015 8.1808L10.0625 10.3965C10.0737 10.8062 9.67008 11.0995 9.28392 10.9622L7.19544 10.2195C7.06902 10.1746 6.93096 10.1746 6.80454 10.2195L4.71608 10.9622C4.32991 11.0995 3.92625 10.8062 3.93752 10.3965L3.99846 8.1808C4.00215 8.04663 3.95949 7.91538 3.87767 7.80904L2.52598 6.05226C2.27605 5.72742 2.43023 5.2529 2.82337 5.13701L4.9495 4.51027C5.0782 4.47233 5.18988 4.39118 5.26573 4.28051L6.51882 2.45211Z" fill="#333333"/>
</svg>
