<svg width="30" height="30" viewBox="0 0 30 30" fill="none" xmlns="http://www.w3.org/2000/svg">
<g clip-path="url(#clip0_304_290)">
<path d="M15 30C23.2843 30 30 23.2843 30 15C30 6.71573 23.2843 0 15 0C6.71573 0 0 6.71573 0 15C0 23.2843 6.71573 30 15 30Z" fill="#F2F2F2"/>
<path d="M19.1673 8.56052L8.56066 19.1671C7.97487 19.7529 7.97487 20.7027 8.56066 21.2884C9.14645 21.8742 10.0962 21.8742 10.682 21.2884L21.2886 10.6818C21.8744 10.0961 21.8744 9.14631 21.2886 8.56052C20.7028 7.97473 19.753 7.97473 19.1673 8.56052Z" fill="#333333"/>
<path d="M21.2887 19.1673L10.6821 8.56066C10.0963 7.97487 9.14659 7.97487 8.5608 8.56066C7.97501 9.14645 7.97501 10.0962 8.5608 10.682L19.1674 21.2886C19.7532 21.8744 20.7029 21.8744 21.2887 21.2886C21.8745 20.7028 21.8745 19.753 21.2887 19.1673Z" fill="#333333"/>
</g>
<defs>
<clipPath id="clip0_304_290">
<rect width="30" height="30" fill="white"/>
</clipPath>
</defs>
</svg>
