<svg width="128" height="128" viewBox="0 0 128 128" fill="none" xmlns="http://www.w3.org/2000/svg">
<path d="M26.6667 37.3333C32.5577 37.3333 37.3333 32.5577 37.3333 26.6667C37.3333 20.7756 32.5577 16 26.6667 16C20.7756 16 16 20.7756 16 26.6667C16 32.5577 20.7756 37.3333 26.6667 37.3333Z" fill="#333333"/>
<path d="M26.6667 74.6666C32.5577 74.6666 37.3333 69.891 37.3333 64C37.3333 58.1089 32.5577 53.3333 26.6667 53.3333C20.7756 53.3333 16 58.1089 16 64C16 69.891 20.7756 74.6666 26.6667 74.6666Z" fill="#333333"/>
<path d="M26.6667 112C32.5577 112 37.3333 107.224 37.3333 101.333C37.3333 95.4423 32.5577 90.6667 26.6667 90.6667C20.7756 90.6667 16 95.4423 16 101.333C16 107.224 20.7756 112 26.6667 112Z" fill="#333333"/>
<path d="M106.667 21.3333H53.3333C50.3878 21.3333 48 23.7211 48 26.6666C48 29.6122 50.3878 32 53.3333 32H106.667C109.612 32 112 29.6122 112 26.6666C112 23.7211 109.612 21.3333 106.667 21.3333Z" fill="#D9D9D9"/>
<path d="M106.667 96H53.3333C50.3878 96 48 98.3878 48 101.333C48 104.279 50.3878 106.667 53.3333 106.667H106.667C109.612 106.667 112 104.279 112 101.333C112 98.3878 109.612 96 106.667 96Z" fill="#D9D9D9"/>
<path d="M106.667 58.6667H53.3333C50.3878 58.6667 48 61.0545 48 64C48 66.9455 50.3878 69.3334 53.3333 69.3334H106.667C109.612 69.3334 112 66.9455 112 64C112 61.0545 109.612 58.6667 106.667 58.6667Z" fill="#D9D9D9"/>
<path d="M101.333 128C116.061 128 128 116.061 128 101.333C128 86.6058 116.061 74.6667 101.333 74.6667C86.6058 74.6667 74.6667 86.6058 74.6667 101.333C74.6667 116.061 86.6058 128 101.333 128Z" fill="#B6EDCD"/>
<path d="M101.333 115.989C103.443 115.989 104.719 114.61 104.719 112.37V104.922H111.776C113.938 104.922 115.318 103.672 115.318 101.589C115.318 99.5312 113.964 98.2811 111.802 98.2811H104.719V90.7814C104.719 88.5675 103.443 87.1616 101.333 87.1616C99.224 87.1616 97.9222 88.5675 97.9222 90.7814V98.2811H90.8123C88.6774 98.2811 87.3227 99.5312 87.3227 101.589C87.3227 103.672 88.6774 104.922 90.8123 104.922H97.9222V112.37C97.9222 114.61 99.1979 115.989 101.333 115.989Z" fill="#2ECC71"/>
</svg>
