<svg width="30" height="30" viewBox="0 0 30 30" fill="none" xmlns="http://www.w3.org/2000/svg">
<g clip-path="url(#clip0_325_1746)">
<path d="M15 29.8438C23.1979 29.8438 29.8437 23.1979 29.8437 15.0001C29.8437 6.80208 23.1979 0.156311 15 0.156311C6.80202 0.156311 0.15625 6.80208 0.15625 15.0001C0.15625 23.1979 6.80202 29.8438 15 29.8438Z" fill="#F2F2F2"/>
<path d="M15 14.9999C17.0494 14.9999 18.7109 13.3385 18.7109 11.289C18.7109 9.23948 17.0494 7.57803 15 7.57803C12.9505 7.57803 11.2891 9.23948 11.2891 11.289C11.2891 13.3385 12.9505 14.9999 15 14.9999Z" fill="#333333"/>
<path d="M19.4531 17.2266H10.5469C9.31718 17.2266 8.32031 18.2235 8.32031 19.4531C8.32031 20.6827 9.31718 21.6797 10.5469 21.6797H19.4531C20.6827 21.6797 21.6797 20.6827 21.6797 19.4531C21.6797 18.2235 20.6827 17.2266 19.4531 17.2266Z" fill="#333333"/>
</g>
<defs>
<clipPath id="clip0_325_1746">
<rect width="30" height="30" fill="white"/>
</clipPath>
</defs>
</svg>
