<svg width="24" height="24" viewBox="0 0 24 24" fill="none" xmlns="http://www.w3.org/2000/svg">
<path d="M4.05237 21.1724C3.3088 21.3716 2.62838 20.6912 2.82762 19.9476L4.07346 15.2981C4.2727 14.5545 5.20215 14.3055 5.74648 14.8498L9.15017 18.2535C9.69451 18.7978 9.44546 19.7273 8.70189 19.9265L4.05237 21.1724Z" fill="#F2F2F2"/>
<path fill-rule="evenodd" clip-rule="evenodd" d="M3.2761 18.2742L5.72593 20.7239L4.05234 21.1724C3.30881 21.3716 2.62839 20.6912 2.82761 19.9478L3.2761 18.2742Z" fill="#333333"/>
<path d="M4.22827 14.9827L15.4712 3.7397C16.6428 2.5682 18.5423 2.5682 19.7138 3.7397L20.2622 4.2881C21.4338 5.4597 21.4338 7.3592 20.2622 8.5307L9.01929 19.7737L4.22827 14.9827Z" fill="#F2F2F2"/>
<path d="M13.0479 6.17093L17.833 10.9561L19.8956 8.89352L15.1104 4.10837L13.0479 6.17093Z" fill="#333333"/>
</svg>
