<svg width="24" height="24" viewBox="0 0 24 24" fill="none" xmlns="http://www.w3.org/2000/svg">
<g clip-path="url(#clip0_77_2296)">
<path d="M22.1317 19.0104L17.182 14.0607C16.5962 13.4749 15.6465 13.4749 15.0607 14.0607C14.4749 14.6464 14.4749 15.5962 15.0607 16.182L20.0104 21.1317C20.5962 21.7175 21.546 21.7175 22.1317 21.1317C22.7175 20.5459 22.7175 19.5962 22.1317 19.0104Z" fill="#E67E22"/>
<path d="M23.1317 17.0104L18.182 12.0607C17.5962 11.4749 16.6465 11.4749 16.0607 12.0607C15.4749 12.6464 15.4749 13.5962 16.0607 14.182L21.0104 19.1317C21.5962 19.7175 22.546 19.7175 23.1317 19.1317C23.7175 18.5459 23.7175 17.5962 23.1317 17.0104Z" fill="#E67E22"/>
<path d="M20.1317 20.0104L15.182 15.0607C14.5962 14.4749 13.6465 14.4749 13.0607 15.0607C12.4749 15.6464 12.4749 16.5962 13.0607 17.182L18.0104 22.1317C18.5962 22.7175 19.546 22.7175 20.1317 22.1317C20.7175 21.5459 20.7175 20.5962 20.1317 20.0104Z" fill="#E67E22"/>
<path d="M2.06064 19.0104L7.01038 14.0607C7.59617 13.4749 8.54592 13.4749 9.13171 14.0607C9.71749 14.6464 9.71749 15.5962 9.13171 16.182L4.18196 21.1317C3.59617 21.7175 2.64642 21.7175 2.06064 21.1317C1.47485 20.5459 1.47485 19.5962 2.06064 19.0104Z" fill="#E67E22"/>
<path d="M1.06064 17.0104L6.01038 12.0607C6.59617 11.4749 7.54592 11.4749 8.13171 12.0607C8.71749 12.6464 8.71749 13.5962 8.13171 14.182L3.18196 19.1317C2.59617 19.7175 1.64642 19.7175 1.06064 19.1317C0.474849 18.5459 0.474849 17.5962 1.06064 17.0104Z" fill="#E67E22"/>
<path d="M4.06064 20.0104L9.01038 15.0607C9.59617 14.4749 10.5459 14.4749 11.1317 15.0607C11.7175 15.6464 11.7175 16.5962 11.1317 17.182L6.18196 22.1317C5.59617 22.7175 4.64642 22.7175 4.06064 22.1317C3.47485 21.5459 3.47485 20.5962 4.06064 20.0104Z" fill="#E67E22"/>
<path d="M10.2779 2.34255C11.4148 2.11641 12.5852 2.11641 13.7221 2.34255C14.859 2.5687 15.9402 3.01656 16.9041 3.66057C17.8679 4.30458 18.6954 5.13213 19.3394 6.09596C19.9834 7.05978 20.4313 8.14102 20.6575 9.27793C20.8836 10.4149 20.8836 11.5852 20.6575 12.7221C20.4313 13.859 19.9834 14.9402 19.3394 15.9041C18.6954 16.8679 17.8679 17.6954 16.9041 18.3394C15.9402 18.9834 14.859 19.4313 13.7221 19.6575C12.5852 19.8836 11.4148 19.8836 10.2779 19.6575C9.14105 19.4313 8.05981 18.9834 7.09599 18.3394C6.13216 17.6954 5.30461 16.8679 4.6606 15.9041C4.01659 14.9402 3.56873 13.859 3.34258 12.7221C3.11644 11.5852 3.11644 10.4149 3.34258 9.27793C3.56873 8.14102 4.01659 7.05978 4.6606 6.09595C5.30461 5.13212 6.13215 4.30458 7.09598 3.66057C8.05981 3.01656 9.14105 2.5687 10.2779 2.34255Z" fill="#F6D2B2"/>
<path d="M11.9624 15.1719C13.7617 15.1719 14.981 14.2373 14.981 12.8301C14.981 11.7612 14.2344 11.0845 13.0796 10.977V10.9448C13.9927 10.7568 14.6963 10.1123 14.6963 9.12939C14.6963 7.88867 13.5898 7.07764 11.9517 7.07764C10.582 7.07764 9.70117 7.71143 9.35742 8.46875C9.27686 8.65137 9.23926 8.80713 9.23926 8.98975C9.23926 9.38184 9.47021 9.64502 9.92139 9.64502C10.2866 9.64502 10.4746 9.51074 10.6519 9.14551C10.9043 8.59766 11.3018 8.32373 11.957 8.32373C12.7412 8.32373 13.1602 8.7373 13.1602 9.36035C13.1602 9.99414 12.6338 10.4346 11.8228 10.4346H11.5059C11.1138 10.4346 10.8882 10.6709 10.8882 11.0093C10.8882 11.3584 11.1138 11.5894 11.5059 11.5894H11.8442C12.7842 11.5894 13.3374 12.0083 13.332 12.7603C13.332 13.4048 12.7842 13.8667 11.9893 13.8667C11.1836 13.8667 10.7646 13.5444 10.4907 13.002C10.3296 12.7065 10.1255 12.5776 9.80322 12.5776C9.35742 12.5776 9.08887 12.8408 9.08887 13.2598C9.08887 13.4209 9.12646 13.5928 9.2124 13.77C9.57764 14.5327 10.4854 15.1719 11.9624 15.1719Z" fill="#E67E22"/>
</g>
<defs>
<clipPath id="clip0_77_2296">
<rect width="24" height="21" fill="white" transform="translate(0 2)"/>
</clipPath>
</defs>
</svg>
