<svg width="16" height="16" viewBox="0 0 16 16" fill="none" xmlns="http://www.w3.org/2000/svg">
<path d="M2.70174 14.1149C2.20603 14.2477 1.75241 13.7941 1.88524 13.2984L2.7158 10.1987C2.84863 9.70299 3.46827 9.53696 3.83115 9.89984L6.10028 12.169C6.46317 12.5319 6.29713 13.1515 5.80142 13.2843L2.70174 14.1149Z" fill="#D9D9D9"/>
<path fill-rule="evenodd" clip-rule="evenodd" d="M2.18423 12.1828L3.81745 13.8159L2.70172 14.1149C2.20604 14.2477 1.75242 13.7941 1.88524 13.2985L2.18423 12.1828Z" fill="#333333"/>
<path d="M2.81885 9.98849L10.3141 2.49318C11.0952 1.71218 12.3615 1.71218 13.1425 2.49318L13.5081 2.85877C14.2892 3.63984 14.2892 4.90617 13.5081 5.68717L6.01286 13.1825L2.81885 9.98849Z" fill="#D9D9D9"/>
<path d="M8.69857 4.11397L11.8887 7.30408L13.2637 5.92904L10.0736 2.73893L8.69857 4.11397Z" fill="#333333"/>
</svg>
