<svg width="14" height="14" viewBox="0 0 14 14" fill="none" xmlns="http://www.w3.org/2000/svg">
<path d="M7.00002 12.8333C10.2217 12.8333 12.8334 10.2216 12.8334 6.99996C12.8334 3.7783 10.2217 1.16663 7.00002 1.16663C3.77836 1.16663 1.16669 3.7783 1.16669 6.99996C1.16669 10.2216 3.77836 12.8333 7.00002 12.8333Z" fill="#333333"/>
<path d="M8.86841 8.04354L8.18766 7.16329C7.98349 6.89904 7.85924 6.58171 7.8289 6.24921L7.58332 3.49996C7.58332 3.17796 7.32199 2.91663 6.99999 2.91663C6.67799 2.91663 6.41666 3.17796 6.41666 3.49996L6.19441 6.34954C6.15066 6.90954 6.37874 7.45671 6.80749 7.82013L8.04357 8.86838C8.27165 9.09646 8.64091 9.09646 8.86841 8.86838C9.09649 8.64088 9.09649 8.27104 8.86841 8.04354Z" fill="#F2F2F2"/>
</svg>
