<svg width="24" height="24" viewBox="0 0 24 24" fill="none" xmlns="http://www.w3.org/2000/svg">
<path d="M16.5 10.5C18.1569 10.5 19.5 9.15685 19.5 7.5C19.5 5.84315 18.1569 4.5 16.5 4.5C14.8431 4.5 13.5 5.84315 13.5 7.5C13.5 9.15685 14.8431 10.5 16.5 10.5Z" fill="#333333"/>
<path d="M7.5 10.5C9.15685 10.5 10.5 9.15685 10.5 7.5C10.5 5.84315 9.15685 4.5 7.5 4.5C5.84315 4.5 4.5 5.84315 4.5 7.5C4.5 9.15685 5.84315 10.5 7.5 10.5Z" fill="#333333"/>
<path d="M12 19.5C16.1421 19.5 19.5 16.1421 19.5 12C19.5 7.85786 16.1421 4.5 12 4.5C7.85786 4.5 4.5 7.85786 4.5 12C4.5 16.1421 7.85786 19.5 12 19.5Z" fill="#F2F2F2"/>
<path d="M14.4023 13.3417L13.527 12.21C13.2645 11.8702 13.1047 11.4623 13.0658 11.0347L12.75 7.5C12.75 7.086 12.414 6.75 12 6.75C11.586 6.75 11.25 7.086 11.25 7.5L10.9642 11.1638C10.908 11.8837 11.2012 12.5873 11.7525 13.0545L13.3418 14.4023C13.635 14.6955 14.1098 14.6955 14.4023 14.4023C14.6955 14.1098 14.6955 13.6342 14.4023 13.3417Z" fill="#333333"/>
</svg>
