<svg width="30" height="30" viewBox="0 0 30 30" fill="none" xmlns="http://www.w3.org/2000/svg">
<g clip-path="url(#clip0_553_674)">
<path d="M15 30C6.71572 30 0 23.2842 0 15C0 6.71572 6.71572 0 15 0C23.2842 0 30 6.71572 30 15C30 23.2842 23.2842 30 15 30Z" fill="#F2F2F2"/>
<path d="M7.5 13.5H22.5C23.3284 13.5 24 14.1716 24 15C24 15.8284 23.3284 16.5 22.5 16.5H7.5C6.67155 16.5 6 15.8284 6 15C6 14.1716 6.67155 13.5 7.5 13.5Z" fill="#333333"/>
<path d="M15 30C6.71572 30 0 23.2842 0 15C0 6.71572 6.71572 0 15 0C23.2842 0 30 6.71572 30 15C30 23.2842 23.2842 30 15 30Z" fill="#F2F2F2"/>
<path d="M9 13.5H22.5C23.3285 13.5 24 14.1716 24 15C24 15.8284 23.3285 16.5 22.5 16.5H9C8.17156 16.5 7.5 15.8284 7.5 15C7.5 14.1716 8.17156 13.5 9 13.5Z" fill="#333333"/>
<path d="M10.1083 14.0937L16.9393 20.9247C17.5251 21.5104 17.5251 22.4602 16.9393 23.046C16.3536 23.6319 15.4038 23.6319 14.818 23.046L7.98701 16.215C7.40122 15.6292 7.40122 14.6795 7.98701 14.0937C8.57279 13.5079 9.52255 13.5079 10.1083 14.0937Z" fill="#333333"/>
<path d="M7.98725 13.8917L14.8182 7.06068C15.4041 6.47489 16.3538 6.47489 16.9395 7.06068C17.5254 7.64646 17.5254 8.59622 16.9395 9.182L10.1086 16.013C9.52278 16.5987 8.57303 16.5987 7.98725 16.013C7.40147 15.4272 7.40147 14.4775 7.98725 13.8917Z" fill="#333333"/>
</g>
<defs>
<clipPath id="clip0_553_674">
<rect width="30" height="30" fill="white"/>
</clipPath>
</defs>
</svg>
