<svg width="14" height="14" viewBox="0 0 14 14" fill="none" xmlns="http://www.w3.org/2000/svg">
<path d="M9.91668 1.02087H4.08334C3.11685 1.02087 2.33334 1.80438 2.33334 2.77087V11.2709C2.33334 12.2374 3.11685 13.0209 4.08334 13.0209H9.91668C10.8832 13.0209 11.6667 12.2374 11.6667 11.2709V2.77087C11.6667 1.80438 10.8832 1.02087 9.91668 1.02087Z" fill="#333333"/>
<path d="M6.75903 8.49256C7.12305 8.49256 7.323 8.29259 7.3999 7.94913C7.46655 7.51845 7.62036 7.29795 8.30223 6.90321C9.02516 6.47766 9.39942 5.94959 9.39942 5.17542C9.39942 3.98084 8.42018 3.18103 6.96411 3.18103C5.86182 3.18103 5.0415 3.61683 4.71338 4.29358C4.61084 4.48841 4.55957 4.68323 4.55957 4.90369C4.55957 5.29334 4.81079 5.54456 5.21582 5.54456C5.52856 5.54456 5.75928 5.401 5.88745 5.07288C6.05151 4.61658 6.38989 4.37049 6.89233 4.37049C7.4563 4.37049 7.84595 4.71912 7.84595 5.22156C7.84595 5.69324 7.64599 5.94959 6.98462 6.34437C6.37963 6.69812 6.06689 7.09804 6.06689 7.70302V7.77477C6.06689 8.19518 6.32324 8.49256 6.75903 8.49256ZM6.76928 10.774C7.23584 10.774 7.61011 10.4203 7.61011 9.96909C7.61011 9.51794 7.23584 9.16421 6.76928 9.16421C6.30786 9.16421 5.93359 9.51794 5.93359 9.96909C5.93359 10.4203 6.30786 10.774 6.76928 10.774Z" fill="#F2F2F2"/>
</svg>
