<svg width="128" height="128" viewBox="0 0 128 128" fill="none" xmlns="http://www.w3.org/2000/svg">
<path fill-rule="evenodd" clip-rule="evenodd" d="M72.6371 23.5092C71.2314 13.4969 56.7686 13.4969 55.363 23.5092C54.4387 30.0922 46.7844 33.2628 41.476 29.2613C33.4023 23.1756 23.1756 33.4023 29.2613 41.476C33.2628 46.7845 30.0922 54.4387 23.5092 55.363C13.4969 56.7686 13.4969 71.2314 23.5092 72.6371C30.0922 73.5613 33.2628 81.2158 29.2613 86.5239C23.1756 94.5978 33.4023 104.825 41.476 98.7388C46.7845 94.7376 54.4387 97.9077 55.363 104.491C56.7686 114.503 71.2314 114.503 72.6371 104.491C73.5613 97.9077 81.2158 94.7376 86.5239 98.7388C94.5978 104.825 104.825 94.5978 98.7388 86.5239C94.7376 81.2158 97.9077 73.5613 104.491 72.6371C114.503 71.2314 114.503 56.7686 104.491 55.363C97.9077 54.4387 94.7376 46.7844 98.7388 41.476C104.825 33.4023 94.5978 23.1756 86.5239 29.2613C81.2158 33.2628 73.5613 30.0922 72.6371 23.5092ZM64 82.002C73.9421 82.002 82.0018 73.9423 82.0018 64.0002C82.0018 54.058 73.9421 45.9983 64 45.9983C54.0578 45.9983 45.9981 54.058 45.9981 64.0002C45.9981 73.9423 54.0578 82.002 64 82.002Z" fill="#D9D9D9"/>
<path d="M82.0018 64.0002C82.0018 73.9423 73.9421 82.002 64 82.002C54.0578 82.002 45.9981 73.9423 45.9981 64.0002C45.9981 54.058 54.0578 45.9983 64 45.9983C73.9421 45.9983 82.0018 54.058 82.0018 64.0002Z" fill="#333333"/>
</svg>
