<svg width="24" height="24" viewBox="0 0 24 24" fill="none" xmlns="http://www.w3.org/2000/svg">
<g clip-path="url(#clip0_77_2277)">
<path d="M22.1317 19.0104L17.182 14.0607C16.5962 13.4749 15.6465 13.4749 15.0607 14.0607C14.4749 14.6464 14.4749 15.5962 15.0607 16.182L20.0104 21.1317C20.5962 21.7175 21.546 21.7175 22.1317 21.1317C22.7175 20.5459 22.7175 19.5962 22.1317 19.0104Z" fill="#F1C40F"/>
<path d="M23.1317 17.0104L18.182 12.0607C17.5962 11.4749 16.6465 11.4749 16.0607 12.0607C15.4749 12.6464 15.4749 13.5962 16.0607 14.182L21.0104 19.1317C21.5962 19.7175 22.546 19.7175 23.1317 19.1317C23.7175 18.5459 23.7175 17.5962 23.1317 17.0104Z" fill="#F1C40F"/>
<path d="M20.1317 20.0104L15.182 15.0607C14.5962 14.4749 13.6465 14.4749 13.0607 15.0607C12.4749 15.6464 12.4749 16.5962 13.0607 17.182L18.0104 22.1317C18.5962 22.7175 19.546 22.7175 20.1317 22.1317C20.7175 21.5459 20.7175 20.5962 20.1317 20.0104Z" fill="#F1C40F"/>
<path d="M2.06064 19.0104L7.01038 14.0607C7.59617 13.4749 8.54592 13.4749 9.13171 14.0607C9.71749 14.6464 9.71749 15.5962 9.13171 16.182L4.18196 21.1317C3.59617 21.7175 2.64642 21.7175 2.06064 21.1317C1.47485 20.5459 1.47485 19.5962 2.06064 19.0104Z" fill="#F1C40F"/>
<path d="M1.06064 17.0104L6.01038 12.0607C6.59617 11.4749 7.54592 11.4749 8.13171 12.0607C8.71749 12.6464 8.71749 13.5962 8.13171 14.182L3.18196 19.1317C2.59617 19.7175 1.64642 19.7175 1.06064 19.1317C0.474849 18.5459 0.474849 17.5962 1.06064 17.0104Z" fill="#F1C40F"/>
<path d="M4.06064 20.0104L9.01038 15.0607C9.59617 14.4749 10.5459 14.4749 11.1317 15.0607C11.7175 15.6464 11.7175 16.5962 11.1317 17.182L6.18196 22.1317C5.59617 22.7175 4.64642 22.7175 4.06064 22.1317C3.47485 21.5459 3.47485 20.5962 4.06064 20.0104Z" fill="#F1C40F"/>
<path d="M9.92645 2.62561C10.9843 1.28609 13.0157 1.28609 14.0735 2.62561C14.6423 3.34578 15.544 3.71927 16.4554 3.6122C18.1506 3.41304 19.587 4.84943 19.3878 6.54463C19.2807 7.45603 19.6542 8.35771 20.3744 8.92646C21.7139 9.98432 21.7139 12.0157 20.3744 13.0735C19.6542 13.6423 19.2807 14.544 19.3878 15.4554C19.587 17.1506 18.1506 18.587 16.4554 18.3878C15.544 18.2807 14.6423 18.6542 14.0735 19.3744C13.0157 20.7139 10.9843 20.7139 9.92645 19.3744C9.3577 18.6542 8.45602 18.2807 7.54462 18.3878C5.84942 18.587 4.41303 17.1506 4.61219 15.4554C4.71926 14.544 4.34577 13.6423 3.6256 13.0735C2.28609 12.0157 2.28609 9.98432 3.6256 8.92646C4.34577 8.35771 4.71926 7.45603 4.61219 6.54463C4.41303 4.84943 5.84942 3.41304 7.54462 3.6122C8.45602 3.71927 9.3577 3.34578 9.92645 2.62561Z" fill="#FAEAAB"/>
<path d="M12.1445 15.1128C12.6226 15.1128 12.9448 14.7905 12.9448 14.3018V8.03906C12.9448 7.48047 12.6011 7.13135 12.0264 7.13135C11.6934 7.13135 11.4355 7.17969 11.0596 7.4375L9.52344 8.50098C9.271 8.67822 9.17432 8.86084 9.17432 9.10791C9.17432 9.45166 9.41602 9.68799 9.74365 9.68799C9.91016 9.68799 10.0229 9.65039 10.1733 9.54297L11.3066 8.75342H11.3389V14.3018C11.3389 14.7905 11.6665 15.1128 12.1445 15.1128Z" fill="#F1C40F"/>
</g>
<defs>
<clipPath id="clip0_77_2277">
<rect width="24" height="24" fill="white"/>
</clipPath>
</defs>
</svg>
