<svg width="14" height="14" viewBox="0 0 14 14" fill="none" xmlns="http://www.w3.org/2000/svg">
<path d="M5.83334 5.25008C5.83334 2.99492 7.66151 1.16675 9.91668 1.16675C11.5275 1.16675 12.8333 2.47259 12.8333 4.08341C12.8333 6.33858 11.0052 8.16675 8.75001 8.16675C7.13919 8.16675 5.83334 6.86091 5.83334 5.25008Z" fill="#333333"/>
<path d="M1.16666 9.91659C1.16666 7.66142 2.99483 5.83325 5.24999 5.83325C6.86082 5.83325 8.16666 7.1391 8.16666 8.74992C8.16666 11.0051 6.33848 12.8333 4.08332 12.8333C2.47249 12.8333 1.16666 11.5274 1.16666 9.91659Z" fill="#333333"/>
<path d="M7.92376 4.40305L4.4047 7.92211C3.94909 8.37772 3.94909 9.11642 4.4047 9.57203L4.42129 9.58862C4.87691 10.0442 5.6156 10.0442 6.07121 9.58862L9.59027 6.06956C10.0459 5.61395 10.0459 4.87525 9.59027 4.41964L9.57368 4.40305C9.11807 3.94744 8.37938 3.94744 7.92376 4.40305Z" fill="#F2F2F2"/>
</svg>
