<svg width="18" height="18" viewBox="0 0 18 18" fill="none" xmlns="http://www.w3.org/2000/svg">
<path d="M3 5.25C3 4.42157 3.67157 3.75 4.5 3.75H9C11.071 3.75 12.75 5.42894 12.75 7.5V15C12.75 15.8285 12.0785 16.5 11.25 16.5H4.5C3.67157 16.5 3 15.8285 3 15V5.25Z" fill="#333333"/>
<path d="M5.25 3C5.25 2.17157 5.92157 1.5 6.75 1.5H10.5L12.75 3.75L15 6V12.75C15 13.5785 14.3285 14.25 13.5 14.25H6.75C5.92157 14.25 5.25 13.5785 5.25 12.75V3Z" fill="#D9D9D9"/>
<path fill-rule="evenodd" clip-rule="evenodd" d="M10.5 1.5V4.5C10.5 5.32843 11.1716 6 12 6H15L12.75 3.75L10.5 1.5Z" fill="#333333"/>
</svg>
