<svg width="16" height="16" viewBox="0 0 16 16" fill="none" xmlns="http://www.w3.org/2000/svg">
<path d="M11.3332 1.16663H4.6665C3.56193 1.16663 2.6665 2.06206 2.6665 3.16663V12.8809C2.6665 13.9855 3.56193 14.8809 4.6665 14.8809H11.3332C12.4377 14.8809 13.3332 13.9855 13.3332 12.8809V3.16663C13.3332 2.06206 12.4377 1.16663 11.3332 1.16663Z" fill="#D9D9D9"/>
<path d="M7.7246 9.7057C8.14062 9.7057 8.36914 9.47716 8.45703 9.08463C8.5332 8.59243 8.70898 8.34043 9.48826 7.8893C10.3145 7.40296 10.7422 6.79944 10.7422 5.91468C10.7422 4.54944 9.62306 3.63538 7.95898 3.63538C6.69922 3.63538 5.76172 4.13343 5.38672 4.90686C5.26953 5.12952 5.21094 5.35218 5.21094 5.60413C5.21094 6.04944 5.49804 6.33655 5.96094 6.33655C6.31836 6.33655 6.58203 6.17249 6.72851 5.79749C6.91601 5.276 7.30273 4.99476 7.87695 4.99476C8.52148 4.99476 8.9668 5.39319 8.9668 5.96741C8.9668 6.50648 8.73828 6.79944 7.98242 7.25062C7.29101 7.65491 6.93359 8.11196 6.93359 8.80336V8.88536C6.93359 9.36583 7.22656 9.7057 7.7246 9.7057ZM7.73632 12.3131C8.26953 12.3131 8.69726 11.9088 8.69726 11.3932C8.69726 10.8776 8.26953 10.4733 7.73632 10.4733C7.20898 10.4733 6.78125 10.8776 6.78125 11.3932C6.78125 11.9088 7.20898 12.3131 7.73632 12.3131Z" fill="#333333"/>
</svg>
