<svg width="24" height="24" viewBox="0 0 24 24" fill="none" xmlns="http://www.w3.org/2000/svg">
<g clip-path="url(#clip0_325_2637)">
<path d="M10.4855 4.18133C9.76591 4.26673 9.23699 4.78528 9.13347 5.50247C8.97815 6.57864 8.79999 8.5622 8.79999 12C8.79999 15.107 8.88083 17.0262 8.96011 18.1612C9.02287 19.0602 9.66363 19.7487 10.5602 19.839C11.3987 19.9234 12.6431 20 14.4 20C16.1569 20 17.4013 19.9234 18.2397 19.839C19.1363 19.7487 19.7771 19.0602 19.8399 18.1612C19.9192 17.0262 20 15.107 20 12C20 8.893 19.9192 6.97384 19.8399 5.83882C19.7771 4.93989 19.1363 4.25128 18.2397 4.16098C17.4013 4.07652 16.1569 4 14.4 4C12.5027 4 11.2614 4.08924 10.4855 4.18133Z" fill="#D9D9D9"/>
<path d="M7.24149 15.7579C7.84517 16.2659 8.59089 15.9333 8.63489 15.1426C8.65925 14.7049 8.68053 14.1527 8.69329 13.4608C12.115 13.4262 14.7795 13.3457 16.0264 13.3023C16.4605 13.2873 16.8 12.9286 16.8 12.4916V11.5938C16.8 11.1634 16.4703 10.808 16.0431 10.7856C14.8034 10.7209 12.1305 10.5993 8.69345 10.5471C8.68073 9.8516 8.65937 9.29692 8.63493 8.85748C8.59093 8.06668 7.84497 7.734 7.24117 8.24216C6.88137 8.54496 6.43781 8.93788 5.90377 9.44316C5.00857 10.2902 4.49469 10.9268 4.20425 11.3529C3.93189 11.7524 3.93193 12.2472 4.20429 12.6467C4.49477 13.0728 5.00865 13.7094 5.90377 14.5565C6.43797 15.062 6.88165 15.455 7.24149 15.7579Z" fill="#333333"/>
</g>
<defs>
<clipPath id="clip0_325_2637">
<rect width="16" height="16" fill="white" transform="translate(4 4)"/>
</clipPath>
</defs>
</svg>
