<svg width="24" height="24" viewBox="0 0 24 24" fill="none" xmlns="http://www.w3.org/2000/svg">
<path d="M19.66 12.18C19.66 11.6533 19.6133 11.1533 19.5333 10.6667H12V13.6733H16.3133C16.12 14.66 15.5533 15.4933 14.7133 16.06V18.06H17.2867C18.7933 16.6667 19.66 14.6133 19.66 12.18Z" fill="#4285F4"/>
<path d="M12 20C14.16 20 15.9667 19.28 17.2867 18.06L14.7133 16.06C13.9933 16.54 13.08 16.8333 12 16.8333C9.91332 16.8333 8.14665 15.4267 7.51332 13.5267H4.85999V15.5867C6.17332 18.2 8.87332 20 12 20Z" fill="#34A853"/>
<path d="M7.51333 13.5267C7.34667 13.0467 7.26 12.5333 7.26 12C7.26 11.4667 7.35333 10.9533 7.51333 10.4733V8.41333H4.86C4.31333 9.49333 4 10.7067 4 12C4 13.2933 4.31333 14.5067 4.86 15.5867L7.51333 13.5267Z" fill="#FBBC05"/>
<path d="M12 7.16667C13.18 7.16667 14.2333 7.57334 15.0667 8.36667L17.3467 6.08667C15.9667 4.79333 14.16 4 12 4C8.87332 4 6.17332 5.8 4.85999 8.41334L7.51332 10.4733C8.14665 8.57334 9.91332 7.16667 12 7.16667Z" fill="#EA4335"/>
</svg>
