<svg width="128" height="128" viewBox="0 0 128 128" fill="none" xmlns="http://www.w3.org/2000/svg">
<path d="M15.0806 21.6126C14.018 17.6469 17.6469 14.018 21.6126 15.0806L46.4101 21.7251C50.3758 22.7877 51.704 27.7448 48.801 30.6479L30.6479 48.801C27.7448 51.704 22.7877 50.3758 21.7251 46.4101L15.0806 21.6126Z" fill="#D9D9D9"/>
<path fill-rule="evenodd" clip-rule="evenodd" d="M30.5376 17.4726L17.4725 30.5383L15.0806 21.6125C14.0181 17.647 17.647 14.0181 21.6118 15.0806L30.5376 17.4726Z" fill="#333333"/>
<path d="M48.0924 22.5508L108.055 82.5131C114.303 88.7616 114.303 98.8923 108.055 105.14L105.13 108.065C98.8816 114.314 88.7509 114.314 82.5029 108.065L22.5404 48.1029L48.0924 22.5508Z" fill="#D9D9D9"/>
<path d="M95.0883 69.5885L69.5675 95.1093L80.5678 106.11L106.089 80.5888L95.0883 69.5885Z" fill="#333333"/>
<path d="M32 117.333C43.7821 117.333 53.3333 107.782 53.3333 96C53.3333 84.2179 43.7821 74.6667 32 74.6667C20.2179 74.6667 10.6667 84.2179 10.6667 96C10.6667 107.782 20.2179 117.333 32 117.333Z" fill="#B8DBF2"/>
<path d="M32 104C36.4183 104 40 100.418 40 96C40 91.5817 36.4183 88 32 88C27.5817 88 24 91.5817 24 96C24 100.418 27.5817 104 32 104Z" fill="#3498DB"/>
<path d="M46.6426 56.9247L28.4531 75.1141L52.9613 99.6223L71.1507 81.4328L46.6426 56.9247Z" fill="#B8DBF2"/>
<path fill-rule="evenodd" clip-rule="evenodd" d="M80 85.3334C100.619 85.3334 117.333 68.6187 117.333 48C117.333 44.9016 116.956 41.8914 116.244 39.0128C115.361 35.4396 110.975 34.6556 108.373 37.2582L90.5392 55.0918C85.6533 59.9775 77.7323 59.9775 72.8464 55.0918C67.9605 50.2061 67.9605 42.2848 72.8464 37.3991L90.6437 19.6016C93.2507 16.995 92.4587 12.6021 88.8779 11.7286C86.032 11.0346 83.0592 10.6667 80 10.6667C59.3814 10.6667 42.6667 27.3814 42.6667 48C42.6667 68.6187 59.3814 85.3334 80 85.3334Z" fill="#B8DBF2"/>
</svg>
