<svg width="16" height="16" viewBox="0 0 16 16" fill="none" xmlns="http://www.w3.org/2000/svg">
<path d="M11.3332 2H4.6665C3.56193 2 2.6665 2.89543 2.6665 4V12.6667C2.6665 13.7712 3.56193 14.6667 4.6665 14.6667H11.3332C12.4377 14.6667 13.3332 13.7712 13.3332 12.6667V4C13.3332 2.89543 12.4377 2 11.3332 2Z" fill="#D9D9D9"/>
<path d="M12.6667 2H3.33333C2.59695 2 2 2.59695 2 3.33333C2 4.06971 2.59695 4.66667 3.33333 4.66667H12.6667C13.403 4.66667 14 4.06971 14 3.33333C14 2.59695 13.403 2 12.6667 2Z" fill="#333333"/>
<path d="M10.0002 1.33337H6.00016C5.63197 1.33337 5.3335 1.63185 5.3335 2.00004C5.3335 2.36823 5.63197 2.66671 6.00016 2.66671H10.0002C10.3684 2.66671 10.6668 2.36823 10.6668 2.00004C10.6668 1.63185 10.3684 1.33337 10.0002 1.33337Z" fill="#333333"/>
<path d="M6.22412 12.1094C6.49495 12.1094 6.64599 12.0208 6.85433 11.698L7.94287 10.0626H7.97412L9.08349 11.724C9.25536 11.9844 9.40123 12.1094 9.69809 12.1094C10.1096 12.1094 10.422 11.849 10.422 11.4375C10.422 11.2708 10.37 11.125 10.2554 10.9688L8.95849 9.17711L10.2346 7.474C10.3804 7.2865 10.4376 7.13546 10.4376 6.94796C10.4376 6.56254 10.1512 6.30212 9.72409 6.30212C9.44289 6.30212 9.28143 6.42712 9.07829 6.74484L8.05745 8.30211H8.0262L6.98453 6.73442C6.78141 6.4115 6.61995 6.30212 6.31266 6.30212C5.89599 6.30212 5.58349 6.58858 5.58349 6.96879C5.58349 7.14588 5.63557 7.29692 5.74495 7.44275L7.04703 9.21878L5.73975 10.9688C5.59391 11.1615 5.53662 11.3073 5.53662 11.4896C5.53662 11.8542 5.82308 12.1094 6.22412 12.1094Z" fill="#333333"/>
</svg>
