<svg width="128" height="128" viewBox="0 0 128 128" fill="none" xmlns="http://www.w3.org/2000/svg">
<path d="M48.5701 11.8755C43.7728 12.4449 40.2467 15.9019 39.5565 20.6832C38.5211 27.8576 37.3333 41.0814 37.3333 64C37.3333 84.7133 37.8723 97.5078 38.4008 105.074C38.8192 111.067 43.0909 115.658 49.0683 116.26C54.6579 116.823 62.9541 117.333 74.6667 117.333C86.3792 117.333 94.6755 116.823 100.265 116.26C106.242 115.658 110.514 111.067 110.933 105.074C111.461 97.5078 112 84.7133 112 64C112 43.2867 111.461 30.4923 110.933 22.9255C110.514 16.9326 106.242 12.3419 100.265 11.7399C94.6755 11.1768 86.3792 10.6667 74.6667 10.6667C62.0184 10.6667 53.7429 11.2616 48.5701 11.8755Z" fill="#D9D9D9"/>
<path d="M69.0568 89.0528C65.0323 92.4398 60.0608 90.2222 59.7675 84.9512C59.6051 82.0326 59.4632 78.3515 59.3781 73.7387C36.5664 73.508 18.8032 72.9712 10.4906 72.6824C7.59704 72.5819 5.33334 70.191 5.33334 67.2774V61.2923C5.33334 58.4224 7.53115 56.0531 10.3793 55.9043C18.6437 55.4726 36.4635 54.6619 59.3771 54.3142C59.4619 49.6774 59.6043 45.9795 59.7672 43.0499C60.0605 37.7779 65.0336 35.56 69.0589 38.9478C71.4576 40.9664 74.4147 43.5859 77.9749 46.9544C83.9429 52.6011 87.3688 56.8451 89.3051 59.6859C91.1208 62.3494 91.1205 65.6483 89.3048 68.3118C87.3683 71.1523 83.9424 75.396 77.9749 81.0432C74.4136 84.4134 71.4557 87.0339 69.0568 89.0528Z" fill="#333333"/>
</svg>
