<svg width="128" height="128" viewBox="0 0 128 128" fill="none" xmlns="http://www.w3.org/2000/svg">
<path d="M106 85H74C69.5817 85 66 88.5817 66 93V105C66 109.418 69.5817 113 74 113H106C110.418 113 114 109.418 114 105V93C114 88.5817 110.418 85 106 85Z" fill="#D9D9D9"/>
<path d="M80 107C82.2091 107 84 105.209 84 103C84 100.791 82.2091 99 80 99C77.7909 99 76 100.791 76 103C76 105.209 77.7909 107 80 107Z" fill="#333333"/>
<path d="M94 105C95.1046 105 96 104.105 96 103C96 101.895 95.1046 101 94 101C92.8954 101 92 101.895 92 103C92 104.105 92.8954 105 94 105Z" fill="#2ECC71"/>
<path d="M98 109C99.1046 109 100 108.105 100 107C100 105.895 99.1046 105 98 105C96.8954 105 96 105.895 96 107C96 108.105 96.8954 109 98 109Z" fill="#F1C40F"/>
<path d="M98 101C99.1046 101 100 100.105 100 99C100 97.8954 99.1046 97 98 97C96.8954 97 96 97.8954 96 99C96 100.105 96.8954 101 98 101Z" fill="#E74C3C"/>
<path d="M102 105C103.105 105 104 104.105 104 103C104 101.895 103.105 101 102 101C100.895 101 100 101.895 100 103C100 104.105 100.895 105 102 105Z" fill="#3498DB"/>
<path fill-rule="evenodd" clip-rule="evenodd" d="M113.675 91.1561C113.752 91.4845 113.735 91.8394 113.546 92.1189C113.187 92.6505 112.578 93 111.888 93H67.8882C67.1981 93 66.5897 92.6505 66.2302 92.1189C66.0412 91.8394 66.0242 91.4845 66.1017 91.1561C66.9343 87.6267 70.1045 85 73.8882 85H105.888C109.672 85 112.842 87.6267 113.675 91.1561Z" fill="#333333"/>
<path d="M18.0591 92.4805L40.6471 69.8926C43.9014 66.6382 49.1778 66.6382 52.4322 69.8926C55.6866 73.1469 55.6866 78.4233 52.4322 81.6777L29.8442 104.266C26.5899 107.52 21.3135 107.52 18.0591 104.266C14.8047 101.011 14.8048 95.7349 18.0591 92.4805Z" fill="#E74C3C"/>
<path d="M62.4913 97.3333C41.7806 97.3333 24.9913 80.544 24.9913 59.8333C24.9913 39.1226 41.7806 22.3333 62.4913 22.3333C83.2019 22.3333 99.9913 39.1226 99.9913 59.8333C99.9913 80.544 83.2019 97.3333 62.4913 97.3333Z" fill="#F7C1BB"/>
</svg>
