<svg width="30" height="30" viewBox="0 0 30 30" fill="none" xmlns="http://www.w3.org/2000/svg">
<g clip-path="url(#clip0_239_464)">
<path d="M15 30C23.2843 30 30 23.2843 30 15C30 6.71573 23.2843 0 15 0C6.71573 0 0 6.71573 0 15C0 23.2843 6.71573 30 15 30Z" fill="#F2F2F2"/>
<path d="M21 8.25H9C8.17157 8.25 7.5 8.92157 7.5 9.75C7.5 10.5784 8.17157 11.25 9 11.25H21C21.8284 11.25 22.5 10.5784 22.5 9.75C22.5 8.92157 21.8284 8.25 21 8.25Z" fill="#333333"/>
<path d="M21 18.75H9C8.17157 18.75 7.5 19.4216 7.5 20.25C7.5 21.0784 8.17157 21.75 9 21.75H21C21.8284 21.75 22.5 21.0784 22.5 20.25C22.5 19.4216 21.8284 18.75 21 18.75Z" fill="#333333"/>
<path d="M21 13.5H9C8.17157 13.5 7.5 14.1716 7.5 15C7.5 15.8284 8.17157 16.5 9 16.5H21C21.8284 16.5 22.5 15.8284 22.5 15C22.5 14.1716 21.8284 13.5 21 13.5Z" fill="#333333"/>
</g>
<defs>
<clipPath id="clip0_239_464">
<rect width="30" height="30" fill="white"/>
</clipPath>
</defs>
</svg>
