<svg width="24" height="24" viewBox="0 0 24 24" fill="none" xmlns="http://www.w3.org/2000/svg">
<path d="M12 22C17.5228 22 22 17.5228 22 12C22 6.47715 17.5228 2 12 2C6.47715 2 2 6.47715 2 12C2 17.5228 6.47715 22 12 22Z" fill="#B6EDCD"/>
<path d="M11 7L11 17C11 17.5523 11.4477 18 12 18C12.5523 18 13 17.5523 13 17L13 7C13 6.44771 12.5523 6 12 6C11.4477 6 11 6.44771 11 7Z" fill="#2ECC71"/>
<path d="M17 11L7 11C6.44772 11 6 11.4477 6 12C6 12.5523 6.44772 13 7 13L17 13C17.5523 13 18 12.5523 18 12C18 11.4477 17.5523 11 17 11Z" fill="#2ECC71"/>
</svg>
