<svg width="24" height="24" viewBox="0 0 24 24" fill="none" xmlns="http://www.w3.org/2000/svg">
<path d="M12 22C17.5228 22 22 17.5228 22 12C22 6.47715 17.5228 2 12 2C6.47715 2 2 6.47715 2 12C2 17.5228 6.47715 22 12 22Z" fill="#F2F2F2"/>
<path d="M17 7.625C17 7.15 16.968 6.567 16.75 6C16.75 6 15.324 6.01 13.979 7.284C13.358 7.103 12.694 7 12 7C11.306 7 10.642 7.103 10.021 7.284C8.67605 6.01 7.25005 6 7.25005 6C7.03305 6.567 7.00005 7.15 7.00005 7.625C7.00005 8.344 7.12805 8.785 7.20505 9.003C6.45205 9.839 6.00005 10.874 6.00005 12C6.00005 14.186 7.65505 15.531 10 16C9.47305 16.463 9.15005 17.11 9.04705 17.836C8.82405 17.944 8.50005 18 8.12505 18C7.82405 18 7.23905 17.858 6.69405 17.009C6.47405 16.665 6.00005 16 5.37505 16C5.25305 16 4.99605 15.992 5.00005 16.181C5.00205 16.271 5.14005 16.272 5.43505 16.535C5.68205 16.756 5.91205 17.118 6.00005 17.5C6.14505 18.127 6.72605 19.375 8.12505 19.375C8.62505 19.375 9.00005 19.25 9.00005 19.25V21.541C9.94705 21.838 10.955 22 12 22C13.045 22 14.053 21.838 15 21.541V18.25C15 17.351 14.626 16.55 14 16C16.345 15.531 18 14.186 18 12C18 10.894 17.564 9.875 16.834 9.047C16.897 8.852 17 8.4 17 7.625Z" fill="#9CA3AF"/>
</svg>
